<svg xmlns="http://www.w3.org/2000/svg" xmlns:xlink="http://www.w3.org/1999/xlink" id="Ebene_1" x="0px" y="0px" width="172.913px" height="70.866px" viewBox="0 0 172.913 70.866" xml:space="preserve"><g>	<defs> <rect id="SVGID_1_" y="0" width="172.913" height="70.866"></rect>	</defs>	<clipPath id="SVGID_2_"> <use xlink:href="#SVGID_1_" overflow="visible"></use>	</clipPath>	<path clip-path="url(#SVGID_2_)" fill="#F2B600" d="M168.333,30.391c0.35-0.538,0.654-1.116,0.894-1.74 c1.82-4.741-0.548-10.06-5.29-11.88c-0.554-0.213-0.882-1.192-0.914-1.654c-0.214-3.05-2.093-5.934-5.167-7.015 c-7.987-2.808-13.884,11.649-15.103,14.221c0,0-0.035,0.095-0.112,0.224c-0.31,0.72-1.933,4.49-5.33,12.199 c-3.08,6.991-5.311,12.875-5.96,14.618c0.236-0.507,0.818-0.804,1.419-0.681c0.624,0.126,1.253,0.604,0.941,1.598 c-1.616,4.733-2.436,5.384-3.798,8.936c-1.377,3.593,0.337,8.601,4.418,10.166c3.347,1.285,7.003,0.198,9.155-2.43 c0.64-0.781,1.689-0.832,2.323-0.588c4.741,1.819,10.061-0.549,11.88-5.289c0.563-1.468,0.663-2.982,0.527-4.444 c-0.119-1.279,0.571-2.287,1.702-2.442c4.65-0.641,8.863-3.616,10.663-8.304c1.749-4.558,0.833-9.535-2.119-13.007 C167.996,32.33,167.698,31.369,168.333,30.391"></path>	<path clip-path="url(#SVGID_2_)" fill="#FFD910" d="M131.156,49.891c0,0,0.18-0.495,0.194-0.527 c0.649-1.743,2.88-7.627,5.96-14.618c3.397-7.709,5.021-11.479,5.33-12.199c-0.195,0.327-0.668,0.872-1.589,0.662 c-1.022-0.318-0.991-1.162-0.68-1.842c1.843-4.054,3.328-6.104,4.734-9.723c1.675-4.315-0.248-8.553-4.441-10.163 c-3.042-1.168-6.335-0.368-8.533,1.755c-0.101,0.097-0.524,0.48-0.524,0.48c-0.367,0.396-0.547,0.947-0.565,1.471 c0.089,1.348,0.638,2.12,1.642,2.902c0,0,1.754,1.157,1.754,3.449c0,2.344-1.9,4.244-4.244,4.245c-2.344,0-4.245-1.901-4.244-4.245 c0-1.384,0.679-2.575,1.697-3.376c0.98-0.771,1.751-1.853,1.811-3.286c0.028-0.905-0.551-1.401-1.2-1.49l-0.001-0.006 c-3.127-0.422-6.239,0.783-8.242,3.163c0,0-0.431,0.455-0.431,1.049c0.001,0.321,0.024,0.504,0.268,0.861 c0.241,0.356,0.432,0.749,0.562,1.238c0.606,2.264-0.737,4.592-3.001,5.198c-1.314,0.352-3.063-0.507-3.063-0.507 c-0.877-0.537-1.669-0.481-2.349-0.14c-2.282,1.082-3.722,2.519-5.069,4.795c-0.147,0.288-0.249,0.602-0.25,0.948 c0,0.529,0.085,1.047,0.507,1.424c2.917,2.481,4.756,6.127,4.756,10.233c0,3.033-2.175,6.02-2.175,6.02 c-0.046,0.142-0.078,0.287-0.091,0.445c-0.056,0.749,0.312,1.497,1.506,1.497c0.476,0,0.994-0.041,1.473-0.188 c0,0,2.662-0.774,4.539,0.541c1.92,1.345,2.387,3.991,1.043,5.911c-1.345,1.919-3.991,2.386-5.911,1.043 c-1.134-0.794-1.719-2.034-1.792-3.328c0-2.747-1.969-3.85-3.048-3.85c-0.117,0-0.526,0.013-0.62,0.022 c-0.568,0.066-1.055,0.456-1.424,1.058c-0.104,0.152-0.188,0.319-0.257,0.495c-0.398,0.923-0.572,2.166-0.419,3.509 c0.012,0.109,0.037,0.21,0.054,0.317c0.248,2.543,1.534,4.906,3.62,6.466c0,0,0.36,0.27,0.7,0.11 c0.073-0.028,0.201-0.103,0.201-0.103c1.243-0.875,2.967-0.766,4.078,0.346c1.243,1.243,1.243,3.259,0,4.501 c-0.215,0.215-0.694,0.529-0.694,0.529c-0.21,0.122-0.358,0.341-0.358,0.602c0,0.049,0.013,0.144,0.013,0.144 c0.729,2.228,1.688,4.125,4.053,5.032c6.708,2.621,12.373-7.215,14.115-11.239C130.736,50.989,130.936,50.448,131.156,49.891"></path>	<path clip-path="url(#SVGID_2_)" d="M155.19,20.98c-1.555,0-2.818,1.264-2.818,2.818c0,1.555,1.264,2.819,2.818,2.819 c1.554,0,2.818-1.264,2.818-2.819C158.009,22.244,156.744,20.98,155.19,20.98 M155.19,27.335c-1.95,0-3.537-1.586-3.537-3.537 c0-1.95,1.587-3.537,3.537-3.537c1.949,0,3.536,1.587,3.536,3.537C158.727,25.749,157.14,27.335,155.19,27.335"></path>	<path clip-path="url(#SVGID_2_)" d="M154.594,24.167v1.401h-0.954v-3.703h1.457c0.488,0,0.844,0.083,1.07,0.249 c0.229,0.161,0.341,0.42,0.341,0.775c0,0.244-0.058,0.445-0.176,0.603c-0.119,0.155-0.295,0.273-0.535,0.345 c0.133,0.032,0.248,0.101,0.352,0.205c0.104,0.104,0.209,0.261,0.312,0.477l0.521,1.049h-1.016l-0.452-0.92 c-0.09-0.183-0.184-0.312-0.277-0.377c-0.094-0.068-0.22-0.104-0.373-0.104H154.594z M154.996,23.511 c0.197,0,0.341-0.04,0.428-0.115c0.086-0.072,0.133-0.194,0.133-0.366c0-0.169-0.047-0.288-0.133-0.363 c-0.087-0.072-0.23-0.107-0.428-0.107h-0.402v0.951H154.996z"></path>	<path clip-path="url(#SVGID_2_)" d="M139.686,26.013c0-0.135-0.046-0.244-0.137-0.326c-0.093-0.081-0.249-0.123-0.471-0.123h-4.556 c-0.396,0-0.66,0.184-0.796,0.55c-0.396,1.099-4.016,12.062-4.41,13.161l-4.412-13.161c-0.135-0.366-0.386-0.55-0.752-0.55h-4.657 c-0.356,0-0.535,0.136-0.535,0.405c0,0.039,0.008,0.078,0.022,0.116c0.014,0.039,0.021,0.082,0.021,0.13l6.98,18.25 c0.509,1.353,1.806,2.319,3.343,2.319c1.512,0,2.787-0.943,3.312-2.264l7.033-18.305v-0.043 C139.681,26.143,139.686,26.09,139.686,26.013"></path>	<path clip-path="url(#SVGID_2_)" d="M146.97,38.713h-4.415c0.182-0.488,2.033-6.084,2.215-6.574L146.97,38.713z M155.199,46.137 l-7.14-18.266c-0.507-1.345-1.798-2.308-3.324-2.308c-1.499,0-2.763,0.933-3.287,2.24l-7.107,18.405 c-0.077,0.192-0.056,0.336,0.064,0.432c0.12,0.097,0.271,0.144,0.453,0.144h4.243c0.365,0,0.609-0.177,0.733-0.532 c0.183-0.488,0.926-2.431,1.108-2.92h7.639c0.182,0.489,0.916,2.432,1.108,2.92c0.066,0.192,0.16,0.329,0.279,0.41 c0.12,0.081,0.29,0.122,0.511,0.122h4.129c0.259,0,0.441-0.06,0.547-0.179C155.261,46.485,155.276,46.329,155.199,46.137"></path>	<path clip-path="url(#SVGID_2_)" fill="#FFFFFF" d="M18.905,36.016c0,1.003-0.174,1.93-0.523,2.779 c-0.35,0.851-0.832,1.59-1.447,2.218c-0.616,0.629-1.336,1.137-2.161,1.523c-0.826,0.388-1.714,0.619-2.666,0.695 c-0.279,0.025-0.559,0.048-0.837,0.066c-0.28,0.02-0.566,0.028-0.858,0.028H8.815V28.685h2.512c1.041,0,2.022,0.182,2.942,0.543 c0.921,0.362,1.723,0.87,2.409,1.524c0.685,0.654,1.228,1.428,1.628,2.323C18.705,33.969,18.905,34.95,18.905,36.016 M26.236,36.035c0-1.333-0.175-2.608-0.523-3.827c-0.35-1.218-0.838-2.355-1.467-3.408c-0.628-1.054-1.386-2.005-2.275-2.856 c-0.888-0.85-1.869-1.58-2.942-2.19c-1.073-0.609-2.228-1.078-3.465-1.409c-1.238-0.33-2.523-0.495-3.855-0.495H8.476 c-3.792,0.205-6.868,3.022-7.03,6.77v20.724c0,0.331,0.088,0.546,0.267,0.648c0.177,0.101,0.38,0.151,0.608,0.151h9.388 c1.332,0,2.62-0.161,3.864-0.485c1.245-0.323,2.402-0.784,3.476-1.38c1.072-0.598,2.049-1.32,2.932-2.17 c0.881-0.852,1.64-1.8,2.275-2.848c0.634-1.047,1.123-2.177,1.466-3.39C26.065,38.66,26.236,37.38,26.236,36.035"></path>	<path clip-path="url(#SVGID_2_)" fill="#F2A900" d="M8.476,21.85H2.322c-0.292,0-0.511,0.083-0.657,0.248s-0.219,0.381-0.219,0.647 v5.875C1.608,24.872,4.684,22.055,8.476,21.85"></path>	<path clip-path="url(#SVGID_2_)" fill="#FFFFFF" d="M43.559,28.772c0.594,0.206,1.123,0.492,1.586,0.859 c0.462,0.368,0.874,0.793,1.233,1.278c0.36,0.485,0.695,1.013,1.003,1.586H36.124c0.234-0.499,0.539-0.991,0.914-1.476 c0.374-0.485,0.796-0.917,1.267-1.3c0.469-0.382,0.972-0.686,1.508-0.914c0.537-0.228,1.091-0.342,1.664-0.342 C42.27,28.463,42.964,28.566,43.559,28.772 M52.646,46.252c0.162-0.212,0.243-0.466,0.243-0.76c0-0.161-0.022-0.319-0.067-0.473 c-0.044-0.155-0.147-0.328-0.308-0.519l-2.335-2.644c-0.25-0.25-0.474-0.44-0.673-0.573c-0.197-0.132-0.393-0.197-0.583-0.197 c-0.191,0-0.371,0.048-0.54,0.143c-0.169,0.096-0.371,0.239-0.606,0.429c-0.264,0.266-0.613,0.519-1.046,0.762 c-0.434,0.241-0.911,0.454-1.432,0.639c-0.522,0.183-1.062,0.33-1.619,0.439c-0.558,0.11-1.101,0.166-1.631,0.166 c-0.587,0-1.211-0.081-1.872-0.242c-0.661-0.162-1.285-0.431-1.872-0.805c-0.588-0.375-1.106-0.878-1.554-1.509 c-0.448-0.631-0.746-1.417-0.892-2.357h15.862c0.925,0,1.626-0.056,2.104-0.166c0.477-0.108,0.818-0.308,1.024-0.595 c0.206-0.285,0.319-0.671,0.341-1.156c0.022-0.483,0.034-1.107,0.034-1.873c0-1.174-0.165-2.316-0.496-3.425 c-0.331-1.109-0.797-2.152-1.399-3.129c-0.602-0.976-1.322-1.876-2.159-2.698c-0.837-0.823-1.759-1.528-2.765-2.115 c-1.006-0.587-2.081-1.043-3.227-1.366c-1.146-0.323-2.328-0.485-3.547-0.485c-1.337,0-2.607,0.177-3.812,0.529 c-1.203,0.353-2.32,0.845-3.348,1.477c-1.028,0.631-1.957,1.391-2.786,2.279c-0.831,0.889-1.536,1.862-2.116,2.919 c-0.58,1.058-1.027,2.192-1.343,3.404s-0.474,2.464-0.474,3.756c0,2.071,0.396,3.987,1.189,5.75s1.866,3.293,3.217,4.593 c1.351,1.3,2.923,2.317,4.715,3.052c1.791,0.733,3.693,1.102,5.706,1.102c1.805,0,3.517-0.334,5.132-1.002 c1.616-0.668,3.07-1.598,4.362-2.787C52.293,46.653,52.484,46.466,52.646,46.252"></path>	<path clip-path="url(#SVGID_2_)" fill="#FFFFFF" d="M72.546,28.772c0.595,0.206,1.124,0.492,1.586,0.859 c0.463,0.368,0.874,0.793,1.234,1.278c0.359,0.485,0.694,1.013,1.002,1.586H65.111c0.234-0.499,0.54-0.991,0.914-1.476 c0.375-0.485,0.796-0.917,1.267-1.3c0.47-0.382,0.972-0.686,1.509-0.914c0.536-0.228,1.09-0.342,1.663-0.342 C71.258,28.463,71.951,28.566,72.546,28.772 M81.634,46.252c0.161-0.212,0.242-0.466,0.242-0.76c0-0.161-0.022-0.319-0.066-0.473 c-0.044-0.155-0.147-0.328-0.309-0.519l-2.335-2.644c-0.25-0.25-0.473-0.44-0.672-0.573c-0.198-0.132-0.393-0.197-0.584-0.197 s-0.371,0.048-0.54,0.143c-0.169,0.096-0.37,0.239-0.605,0.429c-0.264,0.266-0.613,0.519-1.047,0.762 c-0.433,0.241-0.911,0.454-1.432,0.639c-0.521,0.183-1.061,0.33-1.618,0.439c-0.559,0.11-1.102,0.166-1.631,0.166 c-0.588,0-1.212-0.081-1.873-0.242c-0.66-0.162-1.285-0.431-1.872-0.805c-0.588-0.375-1.105-0.878-1.553-1.509 c-0.448-0.631-0.746-1.417-0.893-2.357h15.862c0.926,0,1.626-0.056,2.104-0.166c0.477-0.108,0.819-0.308,1.025-0.595 c0.205-0.285,0.319-0.671,0.341-1.156c0.022-0.483,0.033-1.107,0.033-1.873c0-1.174-0.165-2.316-0.495-3.425 c-0.331-1.109-0.798-2.152-1.399-3.129c-0.603-0.976-1.323-1.876-2.16-2.698c-0.836-0.823-1.758-1.528-2.765-2.115 c-1.006-0.587-2.081-1.043-3.226-1.366c-1.146-0.323-2.328-0.485-3.548-0.485c-1.336,0-2.607,0.177-3.811,0.529 c-1.204,0.353-2.32,0.845-3.348,1.477c-1.029,0.631-1.957,1.391-2.787,2.279c-0.83,0.889-1.535,1.862-2.115,2.919 c-0.581,1.058-1.028,2.192-1.344,3.404s-0.474,2.464-0.474,3.756c0,2.071,0.397,3.987,1.19,5.75s1.865,3.293,3.217,4.593 c1.35,1.3,2.922,2.317,4.714,3.052c1.792,0.733,3.693,1.102,5.706,1.102c1.806,0,3.517-0.334,5.132-1.002 c1.616-0.668,3.07-1.598,4.363-2.787C81.281,46.653,81.472,46.466,81.634,46.252"></path>	<path clip-path="url(#SVGID_2_)" fill="#FFFFFF" d="M99.877,32.262c-0.132,0.381-0.322,0.717-0.57,1.009 c-0.248,0.293-0.556,0.531-0.924,0.715c-0.369,0.184-0.781,0.276-1.239,0.276h-4.039v-6.364h4.039c0.458,0,0.867,0.096,1.229,0.287 c0.362,0.19,0.67,0.435,0.924,0.733c0.254,0.299,0.448,0.638,0.58,1.019c0.135,0.381,0.201,0.763,0.201,1.144 C100.078,31.487,100.012,31.881,99.877,32.262 M85.731,49.333c0,0.28,0.076,0.486,0.229,0.619c0.152,0.133,0.355,0.201,0.61,0.201 h5.658c0.584,0,0.876-0.273,0.876-0.82v-9.069h5.772c1.297-0.013,2.478-0.283,3.545-0.81c1.067-0.527,1.981-1.216,2.743-2.067 c0.763-0.851,1.35-1.823,1.763-2.915c0.413-1.092,0.619-2.21,0.619-3.353c0-0.775-0.095-1.54-0.285-2.296 c-0.19-0.756-0.469-1.477-0.829-2.163c-0.362-0.686-0.805-1.324-1.324-1.914c-0.522-0.591-1.106-1.1-1.753-1.525 c-0.648-0.425-1.359-0.759-2.134-1c-0.775-0.242-1.601-0.362-2.478-0.362H86.57c-0.28,0-0.49,0.079-0.63,0.238 c-0.14,0.159-0.209,0.372-0.209,0.638V49.333z"></path></g></svg>